<svg xmlns="http://www.w3.org/2000/svg" width="117" height="20" viewBox="0 0 117 20">
    <path fill="#FFF" fill-rule="evenodd" d="M17.134 11.951c-.35.22-.76.248-1.072.072-.397-.224-.615-.748-.615-1.478V8.363c0-1.053-.416-1.803-1.113-2.005-1.18-.344-2.068 1.1-2.402 1.642L9.85 11.376V7.25c-.023-.949-.331-1.517-.917-1.688-.387-.113-.967-.068-1.53.794l-4.664 7.49A8.229 8.229 0 0 1 1.791 10c0-4.512 3.615-8.182 8.06-8.182 4.443 0 8.058 3.67 8.058 8.182 0 .008.002.015.003.022 0 .008-.002.015-.001.022.042.874-.241 1.57-.777 1.908zm2.566-1.95v-.046C19.675 4.46 15.266 0 9.85 0 4.419 0 0 4.486 0 10s4.419 10 9.85 10c2.492 0 4.871-.947 6.697-2.667a.918.918 0 0 0 .048-1.284.886.886 0 0 0-1.266-.049 7.966 7.966 0 0 1-5.479 2.182c-2.38 0-4.52-1.053-5.997-2.723L8.06 8.704v3.114c0 1.496.58 1.98 1.066 2.12.487.142 1.23.045 2.012-1.223l2.313-3.75a6.8 6.8 0 0 1 .205-.316v1.896c0 1.398.56 2.516 1.536 3.067.88.497 1.987.452 2.888-.117 1.093-.69 1.681-1.962 1.62-3.495zm13.714-3.417c.236.144.441.464.441.752a.858.858 0 0 1-.835.848 1 1 0 0 1-.316-.064c-.52-.384-1.182-.64-1.876-.64-1.639 0-2.774 1.344-2.774 3.008s1.135 2.992 2.774 2.992c.82 0 1.545-.336 2.097-.848a.851.851 0 0 1 .489-.16c.441 0 .788.352.788.8 0 .288-.174.544-.394.688-.788.672-1.86 1.12-2.964 1.12-2.522 0-4.571-2.08-4.571-4.64 0-2.56 2.049-4.64 4.571-4.64.946 0 1.844.288 2.57.784zm4.611 1.936c1.718 0 3.169 1.456 3.169 3.248 0 1.792-1.45 3.312-3.169 3.312-1.797 0-3.294-1.52-3.294-3.312 0-1.792 1.497-3.248 3.294-3.248zm-.016 4.96c.757 0 1.403-.72 1.403-1.696S38.766 10.2 38.01 10.2c-.82 0-1.497.592-1.497 1.584 0 .976.678 1.696 1.497 1.696zm4.265.608V9.512c0-.496.394-.912.883-.912s.899.416.899.912v4.576c0 .496-.41.912-.899.912-.489 0-.883-.416-.883-.912zm-.141-7.216c0-.592.456-1.072 1.024-1.072.583 0 1.056.48 1.056 1.072 0 .576-.473 1.04-1.056 1.04a1.03 1.03 0 0 1-1.024-1.04zm5.336 4.736v2.48c0 .496-.41.912-.899.912-.488 0-.883-.416-.883-.912V9.304c0-.384.316-.704.694-.704.379 0 .679.32.679.704.724-.672 1.355-.784 1.954-.784 1.781 0 2.57 1.344 2.57 2.864v2.704c0 .496-.41.912-.9.912-.488 0-.882-.416-.882-.912v-2.48c0-.784-.095-1.44-1.214-1.44-.788 0-1.12.656-1.12 1.44h.001zm9.908.944a.58.58 0 0 1-.457-.224l-2.081-2.256v4.016c0 .496-.41.912-.899.912-.488 0-.882-.416-.882-.912V6.137a.348.348 0 0 1 .331-.225c.157 0 .283.128.378.225l3.31 3.727c.095.113.221.176.284.176.063 0 .19-.063.284-.175l3.31-3.728c.095-.097.221-.225.379-.225.157 0 .284.096.33.225v7.95c0 .497-.393.913-.882.913a.915.915 0 0 1-.899-.912v-4.016l-2.08 2.256c-.11.128-.253.224-.426.224zm8.568.928c.804 0 1.482-.72 1.482-1.696s-.693-1.616-1.482-1.616c-.788 0-1.419.656-1.419 1.616 0 .944.631 1.696 1.42 1.696zm1.892.816l-.032-.208c-.346.688-1.45.992-2.16.992-1.67 0-2.9-1.52-2.9-3.312 0-1.792 1.26-3.248 2.995-3.248.3 0 1.293.08 2.065.992l.032-.208c0-.384.3-.704.678-.704.378 0 .693.32.693.704v4.992a.705.705 0 0 1-.694.704c-.378 0-.678-.32-.678-.704h.001zm6.314-4.128h-.189c-1.12.064-1.34.704-1.34 1.44v2.48c0 .496-.41.912-.899.912-.488 0-.883-.416-.883-.912V9.304c0-.384.316-.704.694-.704.379 0 .678.32.678.704.662-.624 1.198-.752 1.75-.784h.173a.84.84 0 0 1 .82.832c0 .432-.378.816-.804.816zm6.866 3.504a.81.81 0 0 1 .126.432c0 .464-.426.896-.883.896-.315 0-.583-.24-.788-.496l-2.05-2.384v1.968c0 .496-.41.912-.898.912-.489 0-.883-.416-.883-.912V6.824c0-.496.394-.912.883-.912s.898.416.898.912v4.528l2.05-2.272c.205-.24.457-.48.772-.48.442 0 .852.416.852.88a.784.784 0 0 1-.111.416l-1.624 1.776 1.656 2zm3.492-3.472c-.489 0-1.277.256-1.277 1.008h2.57c0-.768-.82-1.008-1.293-1.008zm2.333 2.144h-3.61c0 1.072 1.025 1.232 1.482 1.232.331 0 .804-.064 1.166-.224.11-.08.3-.144.458-.144a.74.74 0 0 1 .724.736c0 .272-.173.512-.393.64-.552.4-1.262.496-1.94.496-1.796 0-3.294-.976-3.294-3.232 0-1.776.914-3.328 3.043-3.328 1.718 0 3.026 1.12 3.058 3.12a.705.705 0 0 1-.694.704zM91.8 15.08h-.488c-1.356 0-2.144-.592-2.144-2.72v-2.192h-.457c-.426 0-.804-.384-.804-.816 0-.464.378-.832.804-.832h.457V6.824c0-.496.394-.912.883-.912.488 0 .898.416.898.912V8.52h.74c.427 0 .805.368.805.832 0 .432-.378.816-.804.816h-.74v1.84c0 1.216.062 1.472.598 1.472h.252c.426 0 .788.352.788.8 0 .432-.362.8-.788.8zm8.632-8.496c.236.144.441.464.441.752a.858.858 0 0 1-.835.848.998.998 0 0 1-.316-.064c-.52-.384-1.182-.64-1.876-.64-1.639 0-2.774 1.344-2.774 3.008s1.135 2.992 2.774 2.992c.82 0 1.545-.336 2.097-.848a.851.851 0 0 1 .489-.16c.441 0 .788.352.788.8 0 .288-.174.544-.394.688-.788.672-1.86 1.12-2.964 1.12-2.522 0-4.571-2.08-4.571-4.64 0-2.56 2.049-4.64 4.571-4.64.946 0 1.844.288 2.57.784zm4.517 6.896c.804 0 1.481-.72 1.481-1.696s-.693-1.616-1.482-1.616c-.788 0-1.418.656-1.418 1.616 0 .944.63 1.696 1.418 1.696zm1.891.816l-.031-.208c-.347.688-1.45.992-2.16.992-1.671 0-2.9-1.52-2.9-3.312 0-1.792 1.26-3.248 2.994-3.248.3 0 1.293.08 2.066.992l.031-.208c0-.384.3-.704.678-.704.378 0 .694.32.694.704v4.992a.705.705 0 0 1-.694.704c-.378 0-.678-.32-.678-.704zm6.267-.816c.788 0 1.418-.752 1.418-1.696 0-.96-.63-1.616-1.418-1.616-.788 0-1.482.64-1.482 1.616 0 .976.678 1.696 1.482 1.696zm-1.482 1.072v2.272c0 .496-.41.912-.899.912-.488 0-.883-.416-.883-.912v-7.52c0-.384.316-.704.695-.704.378 0 .678.32.678.768.661-.688 1.481-.848 2.096-.848 1.734 0 2.995 1.456 2.995 3.248 0 1.792-1.23 3.312-2.9 3.312-.52 0-1.293-.16-1.782-.528z" opacity=".2"/>
</svg>
