<svg xmlns="http://www.w3.org/2000/svg" width="148" height="48" viewBox="0 0 148 48">
    <g fill="#E53843" fill-rule="evenodd">
        <path d="M21.018 0L41.89 11.937l-.074 24L20.873 48 0 36.063l.072-24L21.018 0zm.514 24.43l7.268-4.146-7.268-4.145V7.855L14.242 12v8.294l-7.26 4.136 7.26 4.146v8.294l7.278 4.147 7.275-4.147-7.263-4.146V24.43zM62.767 34.91h-4.824V16.221h-8.198l4.783-4.004h14.417v4.004h-6.178V34.91zm13.818-8.29v8.905h-4.828V12.316h6.635c3.095 0 5.384.574 6.87 1.723 1.484 1.148 2.227 2.891 2.227 5.23 0 1.365-.369 2.58-1.106 3.643-.738 1.064-1.781 1.897-3.131 2.5l6.698 10.113h-5.359l-5.436-8.906h-2.57zm0-4.001h1.558c1.526 0 2.653-.26 3.38-.778.727-.518 1.09-1.333 1.09-2.445 0-1.1-.37-1.884-1.113-2.349-.743-.466-1.893-.699-3.45-.699h-1.465v6.27zm23.318-.746l4.75-9.557h5.203l-7.554 14.176v9.033h-4.798v-8.874l-7.555-14.335h5.234l4.72 9.557zm12.82-9.557h7.087c3.229 0 5.573.469 7.032 1.405 1.46.936 2.189 2.426 2.189 4.47 0 1.386-.32 2.523-.958 3.411-.639.89-1.488 1.424-2.547 1.604v.158c1.444.33 2.485.943 3.123 1.842.639.9.958 2.096.958 3.588 0 2.116-.75 3.768-2.25 4.953-1.501 1.185-3.54 1.778-6.114 1.778h-8.52V12.316zm4.828 13.097v6.048h3.147c1.329 0 2.31-.26 2.944-.778.633-.518.95-1.312.95-2.38 0-1.927-1.35-2.89-4.05-2.89h-2.99zm0-3.906h2.804c1.308 0 2.256-.206 2.842-.618.587-.414.88-1.095.88-2.048 0-.889-.319-1.527-.957-1.913-.639-.387-1.649-.58-3.03-.58h-2.539v5.16zm29.72 14.018h-13.115V12.316h13.114v4.033h-8.286v5.095h7.71v4.032h-7.71v5.985h8.286v4.064z"/>
    </g>
</svg>
